<?xml version="1.0"?>
<svg xmlns="http://www.w3.org/2000/svg" viewBox="0 0 50 50">
    <path d="M 25 2 C 17.832 2 12 7.832 12 15 C 12 24.523 23.707078 39.955422 24.205078 40.607422 L 25 41.646484 L 25.794922 40.607422 C 26.292922 39.955422 38 24.523 38 15 C 38 7.832 32.168 2 25 2 z M 25 11 C 27.209 11 29 12.791 29 15 C 29 17.209 27.209 19 25 19 C 22.791 19 21 17.209 21 15 C 21 12.791 22.791 11 25 11 z M 7.2949219 32 L 1.5800781 48 L 48.419922 48 L 42.705078 32 L 35.052734 32 C 34.661734 32.687 34.269906 33.354 33.878906 34 L 41.294922 34 L 45.580078 46 L 4.4199219 46 L 8.7050781 34 L 16.121094 34 C 15.731094 33.354 15.338266 32.687 14.947266 32 L 7.2949219 32 z"/>
</svg>
