<?xml version="1.0"?>
<svg xmlns="http://www.w3.org/2000/svg" viewBox="0 0 50 50">
    <path d="M 9 3 L 9 8 L 4 8 L 4 45 L 19.1875 45 C 19.604868 46.157321 20.706873 47 22 47 L 41 47 C 42.64497 47 44 45.64497 44 44 L 44 31 C 44 29.35503 42.64497 28 41 28 L 38 28 L 38 8 L 13 8 L 13 6 L 33 6 L 33 3 L 9 3 z M 10 13 L 14 13 L 14 15 L 10 15 L 10 13 z M 19 13 L 23 13 L 23 15 L 19 15 L 19 13 z M 28 13 L 32 13 L 32 15 L 28 15 L 28 13 z M 10 18 L 14 18 L 14 20 L 10 20 L 10 18 z M 19 18 L 23 18 L 23 20 L 19 20 L 19 18 z M 28 18 L 32 18 L 32 20 L 28 20 L 28 18 z M 10 23 L 14 23 L 14 25 L 10 25 L 10 23 z M 19 23 L 23 23 L 23 25 L 19 25 L 19 23 z M 28 23 L 32 23 L 32 25 L 28 25 L 28 23 z M 10 28 L 14 28 L 14 30 L 10 30 L 10 28 z M 22 30 L 41 30 C 41.56503 30 42 30.43497 42 31 L 42 44 C 42 44.56503 41.56503 45 41 45 L 22 45 C 21.43497 45 21 44.56503 21 44 L 21 31 C 21 30.43497 21.43497 30 22 30 z M 31.474609 32 C 29.011609 32.044 28.714906 33.811938 29.253906 35.835938 C 29.158906 35.892938 29.000016 36.072531 29.041016 36.394531 C 29.116016 36.994531 29.364391 37.14425 29.525391 37.15625 C 29.586391 37.71525 29.964969 38.376469 30.167969 38.480469 C 30.167969 38.879469 30.183578 39.184094 30.142578 39.621094 C 29.656578 40.898094 26.153 40.539 26 43 L 37 43 C 36.848 40.539 33.358094 40.897094 32.871094 39.621094 C 32.831094 39.184094 32.845703 38.881422 32.845703 38.482422 C 33.047703 38.378422 33.411609 37.717203 33.474609 37.158203 C 33.634609 37.146203 33.884984 36.993531 33.958984 36.394531 C 33.998984 36.072531 33.841094 35.892937 33.746094 35.835938 C 34.005094 35.074937 34.545047 32.721516 32.748047 32.478516 C 32.563047 32.160516 32.089609 32 31.474609 32 z M 10 33 L 14 33 L 14 35 L 10 35 L 10 33 z M 10 38 L 14 38 L 14 40 L 10 40 L 10 38 z"/>
</svg>
